<?xml version="1.0" encoding="utf-8"?>
<!-- Generator: Adobe Illustrator 16.0.0, SVG Export Plug-In . SVG Version: 6.00 Build 0)  -->
<!DOCTYPE svg PUBLIC "-//W3C//DTD SVG 1.1//EN" "http://www.w3.org/Graphics/SVG/1.1/DTD/svg11.dtd">
<svg version="1.1" id="Layer_1" xmlns="http://www.w3.org/2000/svg" xmlns:xlink="http://www.w3.org/1999/xlink" x="0px" y="0px"
	 width="15px" height="16px" viewBox="0 0 15 16" enable-background="new 0 0 15 16" xml:space="preserve">
<title>ic_Check</title>
<desc>Created with Sketch.</desc>
<g id="Desktop">
	<g id="_x31_-Product-Listing_x5F_Desktop_x5F_Bundle" transform="translate(-460.000000, -678.000000)">
		<g id="Product" transform="translate(82.000000, 247.000000)">
			<g id="Body" transform="translate(31.515648, 268.533344)">
				<g id="Bonus" transform="translate(0.000000, 111.000000)">
					<g id="Free-App-1" transform="translate(2.000000, 47.000000)">
						<path id="ic_Check" fill="#FFFFFF" d="M350.287,20.379c-0.636-1.148-1.125-1.992-1.466-2.532l-0.543-0.851l-0.41-0.626
							c-0.896-1.395-1.829-2.546-2.799-3.456c0.554-0.458,1.07-0.687,1.548-0.687c0.588,0,1.111,0.215,1.569,0.646
							c0.458,0.431,1.036,1.251,1.733,2.46c0.793-2.577,1.801-5.021,3.025-7.331c0.676-1.258,1.279-2.104,1.81-2.538
							s1.231-0.651,2.106-0.651c0.465,0,1.039,0.072,1.723,0.215c-1.756,1.415-3.161,3.097-4.214,5.045
							S351.955,15.457,350.287,20.379z"/>
					</g>
				</g>
			</g>
		</g>
	</g>
</g>
</svg>
